<?xml version="1.0" encoding="UTF-8"?>
<svg id="Laag_1" xmlns="http://www.w3.org/2000/svg" version="1.1" xmlns:xlink="http://www.w3.org/1999/xlink" viewBox="0 0 510.94 832">
  <!-- Generator: Adobe Illustrator 29.5.1, SVG Export Plug-In . SVG Version: 2.1.0 Build 141)  -->
  <defs>
    <style>
      .st0 {
        fill: #fff;
      }

      .st1 {
        fill: none;
      }

      .st2 {
        fill: #8e8e8e;
      }

      .st3 {
        fill: #d62e39;
      }

      .st4 {
        clip-path: url(#clippath);
      }
    </style>
    <clipPath id="clippath">
      <rect class="st1" x="-1.06" width="512" height="832"/>
    </clipPath>
  </defs>
  <g class="st4">
    <g>
      <rect class="st2" x="-1.06" width="512" height="832"/>
      <rect class="st3" x="59.71" y="42.44" width="74.1" height="748.95"/>
      <g>
        <path class="st0" d="M161.59,88.99v-29.25h10.21c3.4,0,6.13.77,8.17,2.32,2.04,1.55,3.06,3.75,3.06,6.59,0,2.23-.53,4.05-1.6,5.48-1.07,1.42-2.49,2.48-4.27,3.18-1.78.7-3.75,1.04-5.92,1.04h-3.3v10.63h-6.36ZM167.95,73.48h2.55c1.08,0,2.08-.14,2.99-.42.91-.28,1.64-.75,2.18-1.42.54-.67.81-1.57.81-2.72,0-1.49-.52-2.58-1.56-3.3-1.04-.71-2.33-1.07-3.88-1.07h-3.11v8.91Z"/>
        <path class="st0" d="M200.63,89.45c-2.75,0-5.22-.59-7.4-1.76-2.18-1.18-3.89-2.89-5.13-5.13-1.24-2.24-1.86-4.97-1.86-8.19s.63-5.83,1.9-8.1c1.27-2.27,3.01-4.02,5.22-5.25,2.21-1.22,4.7-1.83,7.45-1.83s5.26.6,7.43,1.79c2.17,1.19,3.87,2.92,5.11,5.18,1.24,2.26,1.86,5,1.86,8.22s-.63,5.82-1.9,8.08c-1.27,2.26-3,3.99-5.2,5.2-2.2,1.21-4.69,1.81-7.47,1.81ZM200.82,84.63c1.42,0,2.72-.37,3.88-1.11s2.08-1.87,2.76-3.39c.68-1.52,1.02-3.44,1.02-5.76s-.36-4.34-1.07-5.87c-.71-1.53-1.66-2.66-2.83-3.39-1.18-.73-2.49-1.09-3.95-1.09s-2.72.38-3.88,1.14c-1.16.76-2.08,1.9-2.76,3.44-.68,1.53-1.02,3.46-1.02,5.78s.36,4.24,1.07,5.76c.71,1.52,1.66,2.65,2.85,3.39s2.5,1.11,3.92,1.11Z"/>
        <path class="st0" d="M220.32,88.99v-29.25h5.8l8.12,11.98c.99,1.46,1.95,2.97,2.88,4.55.93,1.58,1.64,3,2.14,4.27h.09c-.12-1.64-.2-3.3-.23-4.99-.03-1.69-.05-3.37-.05-5.04v-10.77h5.94v29.25h-5.8l-8.4-12.07c-.96-1.39-1.84-2.83-2.65-4.32-.81-1.49-1.52-3.03-2.14-4.64h-.09c.15,1.76.24,3.48.26,5.15.02,1.67.02,3.37.02,5.11v10.77h-5.9Z"/>
        <path class="st0" d="M256.8,88.99v-24.23h-8.12v-5.01h22.75v5.01h-8.26v24.23h-6.36Z"/>
        <path class="st0" d="M287.17,89.45c-2.75,0-5.22-.59-7.4-1.76-2.18-1.18-3.89-2.89-5.13-5.13-1.24-2.24-1.86-4.97-1.86-8.19s.63-5.83,1.9-8.1c1.27-2.27,3.01-4.02,5.22-5.25,2.21-1.22,4.7-1.83,7.45-1.83s5.26.6,7.43,1.79c2.17,1.19,3.87,2.92,5.11,5.18,1.24,2.26,1.86,5,1.86,8.22s-.63,5.82-1.9,8.08c-1.27,2.26-3,3.99-5.2,5.2-2.2,1.21-4.69,1.81-7.47,1.81ZM287.35,84.63c1.42,0,2.72-.37,3.88-1.11s2.08-1.87,2.76-3.39c.68-1.52,1.02-3.44,1.02-5.76s-.36-4.34-1.07-5.87c-.71-1.53-1.66-2.66-2.83-3.39-1.18-.73-2.49-1.09-3.95-1.09s-2.72.38-3.88,1.14c-1.16.76-2.08,1.9-2.76,3.44-.68,1.53-1.02,3.46-1.02,5.78s.36,4.24,1.07,5.76c.71,1.52,1.66,2.65,2.85,3.39s2.5,1.11,3.92,1.11Z"/>
        <path class="st0" d="M306.85,88.99v-29.25h5.8l8.12,11.98c.99,1.46,1.95,2.97,2.88,4.55.93,1.58,1.64,3,2.14,4.27h.09c-.12-1.64-.2-3.3-.23-4.99-.03-1.69-.05-3.37-.05-5.04v-10.77h5.94v29.25h-5.8l-8.4-12.07c-.96-1.39-1.84-2.83-2.65-4.32-.81-1.49-1.52-3.03-2.14-4.64h-.09c.15,1.76.24,3.48.26,5.15.02,1.67.02,3.37.02,5.11v10.77h-5.9Z"/>
        <path class="st0" d="M166.93,156.99v-24.23h-8.12v-5.01h22.75v5.01h-8.26v24.23h-6.36Z"/>
        <path class="st0" d="M185.22,156.99v-29.25h6.36v11.61h11.1v-11.61h6.36v29.25h-6.36v-12.63h-11.1v12.63h-6.36Z"/>
        <path class="st0" d="M215.49,156.99v-29.25h19.03v4.92h-12.67v6.69h11.47v4.87h-11.47v7.85h12.81v4.92h-19.17Z"/>
        <path class="st0" d="M250.21,156.99v-29.25h6.36v24.23h11.79v5.01h-18.15Z"/>
        <path class="st0" d="M269.43,156.99l10.91-29.25h6.59l10.82,29.25h-6.73l-2.27-6.73h-10.4l-2.27,6.73h-6.64ZM279.78,145.57h7.43l-1.35-3.9c-.4-1.18-.8-2.41-1.18-3.71-.39-1.3-.75-2.52-1.09-3.67h-.09c-.31,1.15-.67,2.34-1.09,3.6s-.84,2.51-1.28,3.78l-1.35,3.9Z"/>
        <path class="st0" d="M301.65,156.99v-29.25h6.36v12.26l10.03-12.26h7.89l-10.91,12.72,11.84,16.53h-7.8l-8.68-12.53-2.37,2.6v9.93h-6.36Z"/>
        <path class="st0" d="M330.06,156.99v-29.25h19.03v4.92h-12.67v6.69h11.47v4.87h-11.47v7.85h12.81v4.92h-19.17Z"/>
        <path class="st0" d="M166.93,224.99v-24.23h-8.12v-5.01h22.75v5.01h-8.26v24.23h-6.36Z"/>
        <path class="st0" d="M185.22,224.99v-29.25h6.36v11.61h11.1v-11.61h6.36v29.25h-6.36v-12.63h-11.1v12.63h-6.36Z"/>
        <path class="st0" d="M215.49,224.99v-29.25h19.03v4.92h-12.67v6.69h11.47v4.87h-11.47v7.85h12.81v4.92h-19.17Z"/>
        <path class="st0" d="M263.95,225.45c-2.94,0-5.55-.61-7.82-1.83-2.27-1.22-4.06-2.96-5.36-5.22-1.3-2.26-1.95-4.95-1.95-8.08s.63-5.77,1.88-8.03c1.25-2.26,3.02-4.01,5.32-5.25,2.29-1.24,4.98-1.86,8.08-1.86,2.01,0,3.66.19,4.94.56,1.28.37,2.33.77,3.13,1.21l-1.44,4.69c-.81-.43-1.7-.8-2.69-1.09-.99-.29-2.09-.44-3.3-.44-1.67,0-3.2.34-4.6,1.02-1.39.68-2.51,1.76-3.34,3.25-.84,1.49-1.25,3.45-1.25,5.9s.4,4.29,1.21,5.8c.8,1.52,1.9,2.64,3.27,3.37,1.38.73,2.92,1.09,4.62,1.09,1.42,0,2.62-.12,3.6-.37.98-.25,1.83-.57,2.58-.97l1.25,4.64c-.74.4-1.79.77-3.13,1.11-1.35.34-3.01.51-4.99.51Z"/>
        <path class="st0" d="M276.53,224.99v-29.25h6.36v24.23h11.79v5.01h-18.15Z"/>
        <path class="st0" d="M309.54,225.45c-3.84,0-6.85-1.01-9.03-3.02-2.18-2.01-3.27-5.14-3.27-9.38v-17.32h6.36v17.5c0,2.41.48,4.24,1.44,5.48.96,1.24,2.46,1.86,4.5,1.86s3.47-.63,4.39-1.9c.91-1.27,1.37-2.89,1.37-4.87v-18.06h6.36v17.55c0,8.11-4.04,12.16-12.12,12.16Z"/>
        <path class="st0" d="M328.02,224.99v-29.25h10.45c3.06,0,5.49.67,7.29,2.02s2.69,3.21,2.69,5.59c0,1.18-.26,2.2-.79,3.06-.53.87-1.2,1.55-2.02,2.07-.82.51-1.66.88-2.53,1.09,1.7.31,3.16,1.04,4.39,2.21,1.22,1.16,1.83,2.79,1.83,4.9,0,1.61-.46,3.04-1.39,4.29-.93,1.25-2.22,2.24-3.88,2.95-1.66.71-3.61,1.07-5.87,1.07h-10.17ZM334.38,207.4h2.97c1.39,0,2.51-.3,3.34-.91.84-.6,1.25-1.49,1.25-2.67,0-1.08-.39-1.9-1.16-2.44-.77-.54-1.87-.81-3.3-.81h-3.11v6.82ZM334.38,220.16h2.97c1.55,0,2.84-.31,3.88-.93,1.04-.62,1.56-1.66,1.56-3.11s-.53-2.44-1.6-3.04c-1.07-.6-2.39-.91-3.97-.91h-2.83v7.98Z"/>
        <path class="st0" d="M161.59,292.99v-29.25h6.36v11.61h11.1v-11.61h6.36v29.25h-6.36v-12.63h-11.1v12.63h-6.36Z"/>
        <path class="st0" d="M189.21,292.99l10.91-29.25h6.59l10.82,29.25h-6.73l-2.27-6.73h-10.4l-2.27,6.73h-6.64ZM199.57,281.57h7.43l-1.35-3.9c-.4-1.18-.8-2.41-1.18-3.71-.39-1.3-.75-2.52-1.09-3.67h-.09c-.31,1.15-.67,2.34-1.09,3.6s-.84,2.51-1.28,3.78l-1.35,3.9Z"/>
        <path class="st0" d="M221.43,292.99v-29.25h5.8l8.12,11.98c.99,1.46,1.95,2.97,2.88,4.55.93,1.58,1.64,3,2.14,4.27h.09c-.12-1.64-.2-3.3-.23-4.99-.03-1.69-.05-3.37-.05-5.04v-10.77h5.94v29.25h-5.8l-8.4-12.07c-.96-1.39-1.84-2.83-2.65-4.32-.81-1.49-1.52-3.03-2.14-4.64h-.09c.15,1.76.24,3.48.26,5.15.02,1.67.02,3.37.02,5.11v10.77h-5.9Z"/>
        <path class="st0" d="M266.6,293.45c-2.88,0-5.49-.58-7.82-1.74-2.34-1.16-4.19-2.85-5.55-5.08-1.36-2.23-2.04-4.97-2.04-8.22s.68-6.05,2.04-8.31c1.36-2.26,3.2-3.98,5.52-5.15,2.32-1.18,4.94-1.76,7.85-1.76,1.79,0,3.4.16,4.83.46,1.42.31,2.71.73,3.85,1.25l-1.35,4.32c-1.05-.53-2.16-.91-3.32-1.14s-2.3-.35-3.41-.35c-1.67,0-3.21.36-4.62,1.09-1.41.73-2.54,1.88-3.39,3.46-.85,1.58-1.28,3.62-1.28,6.13,0,3.37.76,5.97,2.27,7.78,1.52,1.81,3.67,2.72,6.45,2.72,1.55,0,2.74-.17,3.57-.51v-6.78h-4.83v-4.74h10.91v14.81c-1.21.5-2.62.91-4.22,1.25-1.61.34-3.44.51-5.48.51Z"/>
        <path class="st0" d="M279.27,292.99l10.91-29.25h6.59l10.82,29.25h-6.73l-2.27-6.73h-10.4l-2.27,6.73h-6.64ZM289.63,281.57h7.43l-1.35-3.9c-.4-1.18-.8-2.41-1.18-3.71-.39-1.3-.75-2.52-1.09-3.67h-.09c-.31,1.15-.67,2.34-1.09,3.6s-.84,2.51-1.28,3.78l-1.35,3.9Z"/>
        <path class="st0" d="M311.49,292.99v-29.25h11.1c2.2,0,4.03.4,5.5,1.21,1.47.81,2.58,1.89,3.34,3.25.76,1.36,1.14,2.89,1.14,4.6,0,1.58-.3,2.92-.91,4.02-.6,1.1-1.34,2-2.21,2.69-.87.7-1.72,1.21-2.55,1.56l7.2,11.93h-7.29l-5.62-10.77h-3.39v10.77h-6.31ZM317.8,277.35h2.46c1.67,0,3.05-.36,4.13-1.07,1.08-.71,1.62-1.84,1.62-3.39,0-1.36-.43-2.42-1.3-3.18-.87-.76-2.12-1.14-3.76-1.14h-3.16v8.77Z"/>
        <path class="st0" d="M166.93,360.99v-24.23h-8.12v-5.01h22.75v5.01h-8.26v24.23h-6.36Z"/>
        <path class="st0" d="M197.29,361.45c-2.75,0-5.22-.59-7.4-1.76-2.18-1.18-3.89-2.89-5.13-5.13-1.24-2.24-1.86-4.97-1.86-8.19s.63-5.83,1.9-8.1c1.27-2.27,3.01-4.02,5.22-5.25,2.21-1.22,4.7-1.83,7.45-1.83s5.26.6,7.43,1.79c2.17,1.19,3.87,2.92,5.11,5.18,1.24,2.26,1.86,5,1.86,8.22s-.63,5.82-1.9,8.08c-1.27,2.26-3,3.99-5.2,5.2-2.2,1.21-4.69,1.81-7.47,1.81ZM197.48,356.63c1.42,0,2.72-.37,3.88-1.11s2.08-1.87,2.76-3.39c.68-1.52,1.02-3.44,1.02-5.76s-.36-4.34-1.07-5.87c-.71-1.53-1.66-2.66-2.83-3.39-1.18-.73-2.49-1.09-3.95-1.09s-2.72.38-3.88,1.14c-1.16.76-2.08,1.9-2.76,3.44-.68,1.53-1.02,3.46-1.02,5.78s.36,4.24,1.07,5.76c.71,1.52,1.66,2.65,2.85,3.39s2.5,1.11,3.92,1.11Z"/>
        <path class="st0" d="M216.97,360.99v-29.25h6.36v29.25h-6.36Z"/>
        <path class="st0" d="M229.79,360.99v-29.25h6.36v24.23h11.79v5.01h-18.15Z"/>
        <path class="st0" d="M251.51,360.99v-29.25h19.03v4.92h-12.67v6.69h11.47v4.87h-11.47v7.85h12.81v4.92h-19.17Z"/>
        <path class="st0" d="M280.9,360.99v-24.23h-8.12v-5.01h22.75v5.01h-8.26v24.23h-6.36Z"/>
        <path class="st0" d="M161.31,428.99l2.14-29.25h7.98l3.9,12.35c.4,1.15.83,2.53,1.28,4.15.45,1.62.8,3.15,1.04,4.57h.19c.19-.99.42-2.04.7-3.16.28-1.11.56-2.17.84-3.18.28-1,.51-1.8.7-2.39l3.81-12.35h7.98l2.23,29.25h-6.04l-.65-11.33c-.06-1.18-.12-2.46-.19-3.85-.06-1.39-.1-2.79-.12-4.18-.02-1.39-.02-2.68-.02-3.85h-.09c-.4,1.89-.89,3.86-1.46,5.92-.57,2.06-1.12,3.91-1.65,5.55l-3.71,11.75h-4.97l-3.81-11.75c-.56-1.7-1.09-3.56-1.6-5.57-.51-2.01-.97-3.98-1.37-5.9h-.14c.03,1.21.02,2.54-.02,3.99-.05,1.46-.1,2.87-.16,4.25-.06,1.38-.12,2.59-.19,3.64l-.65,11.33h-5.94Z"/>
        <path class="st0" d="M200.31,428.99v-29.25h19.03v4.92h-12.67v6.69h11.47v4.87h-11.47v7.85h12.81v4.92h-19.17Z"/>
        <path class="st0" d="M224.36,428.99v-29.25h11.1c2.2,0,4.03.4,5.5,1.21,1.47.81,2.58,1.89,3.34,3.25.76,1.36,1.14,2.89,1.14,4.6,0,1.58-.3,2.92-.91,4.02-.6,1.1-1.34,2-2.21,2.69-.87.7-1.72,1.21-2.55,1.56l7.2,11.93h-7.29l-5.62-10.77h-3.39v10.77h-6.31ZM230.67,413.35h2.46c1.67,0,3.05-.36,4.13-1.07,1.08-.71,1.62-1.84,1.62-3.39,0-1.36-.43-2.42-1.3-3.18-.87-.76-2.12-1.14-3.76-1.14h-3.16v8.77Z"/>
        <path class="st0" d="M264.65,429.45c-2.94,0-5.55-.61-7.82-1.83-2.27-1.22-4.06-2.96-5.36-5.22-1.3-2.26-1.95-4.95-1.95-8.08s.63-5.77,1.88-8.03c1.25-2.26,3.02-4.01,5.32-5.25,2.29-1.24,4.98-1.86,8.08-1.86,2.01,0,3.66.19,4.94.56,1.28.37,2.33.77,3.13,1.21l-1.44,4.69c-.81-.43-1.7-.8-2.69-1.09-.99-.29-2.09-.44-3.3-.44-1.67,0-3.2.34-4.6,1.02-1.39.68-2.51,1.76-3.34,3.25-.84,1.49-1.25,3.45-1.25,5.9s.4,4.29,1.21,5.8c.8,1.52,1.9,2.64,3.27,3.37,1.38.73,2.92,1.09,4.62,1.09,1.42,0,2.62-.12,3.6-.37.98-.25,1.83-.57,2.58-.97l1.25,4.64c-.74.4-1.79.77-3.13,1.11-1.35.34-3.01.51-4.99.51Z"/>
        <path class="st0" d="M277.23,428.99v-29.25h6.36v11.61h11.1v-11.61h6.36v29.25h-6.36v-12.63h-11.1v12.63h-6.36Z"/>
        <path class="st0" d="M304.85,428.99l10.91-29.25h6.59l10.82,29.25h-6.73l-2.27-6.73h-10.4l-2.27,6.73h-6.64ZM315.2,417.57h7.43l-1.35-3.9c-.4-1.18-.8-2.41-1.18-3.71-.39-1.3-.75-2.52-1.09-3.67h-.09c-.31,1.15-.67,2.34-1.09,3.6s-.84,2.51-1.28,3.78l-1.35,3.9Z"/>
        <path class="st0" d="M337.07,428.99v-29.25h5.8l8.12,11.98c.99,1.46,1.95,2.97,2.88,4.55.93,1.58,1.64,3,2.14,4.27h.09c-.12-1.64-.2-3.3-.23-4.99-.03-1.69-.05-3.37-.05-5.04v-10.77h5.94v29.25h-5.8l-8.4-12.07c-.96-1.39-1.84-2.83-2.65-4.32-.81-1.49-1.52-3.03-2.14-4.64h-.09c.15,1.76.24,3.48.26,5.15.02,1.67.02,3.37.02,5.11v10.77h-5.9Z"/>
        <path class="st0" d="M368.22,428.99v-29.25h10.21c3,0,5.64.52,7.92,1.56,2.27,1.04,4.05,2.59,5.32,4.67,1.27,2.07,1.9,4.66,1.9,7.75,0,2.63-.43,4.91-1.28,6.85-.85,1.93-2.04,3.52-3.55,4.76-1.52,1.24-3.27,2.16-5.25,2.76-1.98.6-4.1.91-6.36.91h-8.91ZM374.58,424.07h2.14c1.76,0,3.41-.3,4.94-.91s2.78-1.66,3.74-3.16c.96-1.5,1.44-3.6,1.44-6.29,0-2.94-.84-5.18-2.51-6.73-1.67-1.55-3.92-2.32-6.73-2.32h-3.02v19.4Z"/>
        <path class="st0" d="M398.58,428.99v-29.25h6.36v29.25h-6.36Z"/>
        <path class="st0" d="M420.12,429.45c-3.5,0-6.72-.71-9.66-2.14l1.44-4.73c1.33.65,2.64,1.15,3.92,1.51,1.28.36,2.61.53,3.97.53,1.64,0,2.89-.3,3.74-.91.85-.6,1.28-1.43,1.28-2.48,0-.77-.32-1.49-.97-2.14s-2-1.3-4.04-1.95l-2.41-.79c-1.46-.53-2.73-1.14-3.83-1.86-1.1-.71-1.96-1.59-2.58-2.65-.62-1.05-.93-2.35-.93-3.9,0-2.57.94-4.67,2.81-6.31,1.87-1.64,4.54-2.46,8.01-2.46,1.86,0,3.52.19,4.99.56,1.47.37,2.76.87,3.88,1.49l-1.44,4.73c-1.24-.62-2.45-1.1-3.62-1.44-1.18-.34-2.32-.51-3.44-.51-1.52,0-2.69.3-3.5.91-.82.6-1.23,1.4-1.23,2.39s.37,1.79,1.11,2.3,1.87,1.03,3.39,1.56l2.79.88c2.29.77,4.11,1.87,5.45,3.3,1.35,1.42,2.02,3.16,2.02,5.2,0,1.64-.42,3.14-1.25,4.5-.84,1.36-2.08,2.44-3.74,3.23-1.66.79-3.71,1.18-6.15,1.18Z"/>
        <path class="st0" d="M436.32,428.99v-29.25h19.03v4.92h-12.67v6.69h11.47v4.87h-11.47v7.85h12.81v4.92h-19.17Z"/>
        <path class="st0" d="M161.59,496.99v-29.25h6.36v29.25h-6.36Z"/>
        <path class="st0" d="M188.15,497.45c-2.94,0-5.55-.61-7.82-1.83-2.27-1.22-4.06-2.96-5.36-5.22-1.3-2.26-1.95-4.95-1.95-8.08s.63-5.77,1.88-8.03c1.25-2.26,3.02-4.01,5.32-5.25,2.29-1.24,4.98-1.86,8.08-1.86,2.01,0,3.66.19,4.94.56,1.28.37,2.33.77,3.13,1.21l-1.44,4.69c-.81-.43-1.7-.8-2.69-1.09-.99-.29-2.09-.44-3.3-.44-1.67,0-3.2.34-4.6,1.02-1.39.68-2.51,1.76-3.34,3.25-.84,1.49-1.25,3.45-1.25,5.9s.4,4.29,1.21,5.8c.8,1.52,1.9,2.64,3.27,3.37,1.38.73,2.92,1.09,4.62,1.09,1.42,0,2.62-.12,3.6-.37.98-.25,1.83-.57,2.58-.97l1.25,4.64c-.74.4-1.79.77-3.13,1.11-1.35.34-3.01.51-4.99.51Z"/>
        <path class="st0" d="M200.73,496.99v-29.25h19.03v4.92h-12.67v6.69h11.47v4.87h-11.47v7.85h12.81v4.92h-19.17Z"/>
        <path class="st0" d="M249.19,497.45c-2.94,0-5.55-.61-7.82-1.83-2.27-1.22-4.06-2.96-5.36-5.22-1.3-2.26-1.95-4.95-1.95-8.08s.63-5.77,1.88-8.03c1.25-2.26,3.02-4.01,5.32-5.25,2.29-1.24,4.98-1.86,8.08-1.86,2.01,0,3.66.19,4.94.56,1.28.37,2.33.77,3.13,1.21l-1.44,4.69c-.81-.43-1.7-.8-2.69-1.09-.99-.29-2.09-.44-3.3-.44-1.67,0-3.2.34-4.6,1.02-1.39.68-2.51,1.76-3.34,3.25-.84,1.49-1.25,3.45-1.25,5.9s.4,4.29,1.21,5.8c.8,1.52,1.9,2.64,3.27,3.37,1.38.73,2.92,1.09,4.62,1.09,1.42,0,2.62-.12,3.6-.37.98-.25,1.83-.57,2.58-.97l1.25,4.64c-.74.4-1.79.77-3.13,1.11-1.35.34-3.01.51-4.99.51Z"/>
        <path class="st0" d="M261.77,496.99v-29.25h11.1c2.2,0,4.03.4,5.5,1.21,1.47.81,2.58,1.89,3.34,3.25.76,1.36,1.14,2.89,1.14,4.6,0,1.58-.3,2.92-.91,4.02-.6,1.1-1.34,2-2.21,2.69-.87.7-1.72,1.21-2.55,1.56l7.2,11.93h-7.29l-5.62-10.77h-3.39v10.77h-6.31ZM268.09,481.35h2.46c1.67,0,3.05-.36,4.13-1.07,1.08-.71,1.62-1.84,1.62-3.39,0-1.36-.43-2.42-1.3-3.18-.87-.76-2.12-1.14-3.76-1.14h-3.16v8.77Z"/>
        <path class="st0" d="M288.33,496.99v-29.25h19.03v4.92h-12.67v6.69h11.47v4.87h-11.47v7.85h12.81v4.92h-19.17Z"/>
        <path class="st0" d="M309.73,496.99l10.91-29.25h6.59l10.82,29.25h-6.73l-2.27-6.73h-10.4l-2.27,6.73h-6.64ZM320.08,485.57h7.43l-1.35-3.9c-.4-1.18-.8-2.41-1.18-3.71-.39-1.3-.75-2.52-1.09-3.67h-.09c-.31,1.15-.67,2.34-1.09,3.6s-.84,2.51-1.28,3.78l-1.35,3.9Z"/>
        <path class="st0" d="M341.66,496.99l2.14-29.25h7.98l3.9,12.35c.4,1.15.83,2.53,1.28,4.15.45,1.62.8,3.15,1.04,4.57h.19c.19-.99.42-2.04.7-3.16.28-1.11.56-2.17.84-3.18.28-1,.51-1.8.7-2.39l3.81-12.35h7.98l2.23,29.25h-6.04l-.65-11.33c-.06-1.18-.12-2.46-.19-3.85-.06-1.39-.1-2.79-.12-4.18-.02-1.39-.02-2.68-.02-3.85h-.09c-.4,1.89-.89,3.86-1.46,5.92-.57,2.06-1.12,3.91-1.65,5.55l-3.71,11.75h-4.97l-3.81-11.75c-.56-1.7-1.09-3.56-1.6-5.57-.51-2.01-.97-3.98-1.37-5.9h-.14c.03,1.21.02,2.54-.02,3.99-.05,1.46-.1,2.87-.16,4.25-.06,1.38-.12,2.59-.19,3.64l-.65,11.33h-5.94Z"/>
        <path class="st0" d="M161.59,564.99v-29.25h18.57v4.92h-12.21v7.71h11.19v4.87h-11.19v11.75h-6.36Z"/>
        <path class="st0" d="M197.43,565.45c-2.75,0-5.22-.59-7.4-1.76-2.18-1.18-3.89-2.89-5.13-5.13-1.24-2.24-1.86-4.97-1.86-8.19s.63-5.83,1.9-8.1c1.27-2.27,3.01-4.02,5.22-5.25,2.21-1.22,4.7-1.83,7.45-1.83s5.26.6,7.43,1.79c2.17,1.19,3.87,2.92,5.11,5.18,1.24,2.26,1.86,5,1.86,8.22s-.63,5.82-1.9,8.08c-1.27,2.26-3,3.99-5.2,5.2-2.2,1.21-4.69,1.81-7.47,1.81ZM197.62,560.63c1.42,0,2.72-.37,3.88-1.11s2.08-1.87,2.76-3.39c.68-1.52,1.02-3.44,1.02-5.76s-.36-4.34-1.07-5.87c-.71-1.53-1.66-2.66-2.83-3.39-1.18-.73-2.49-1.09-3.95-1.09s-2.72.38-3.88,1.14c-1.16.76-2.08,1.9-2.76,3.44-.68,1.53-1.02,3.46-1.02,5.78s.36,4.24,1.07,5.76c.71,1.52,1.66,2.65,2.85,3.39s2.5,1.11,3.92,1.11Z"/>
        <path class="st0" d="M230.11,565.45c-2.75,0-5.22-.59-7.4-1.76-2.18-1.18-3.89-2.89-5.13-5.13-1.24-2.24-1.86-4.97-1.86-8.19s.63-5.83,1.9-8.1c1.27-2.27,3.01-4.02,5.22-5.25,2.21-1.22,4.7-1.83,7.45-1.83s5.26.6,7.43,1.79c2.17,1.19,3.87,2.92,5.11,5.18,1.24,2.26,1.86,5,1.86,8.22s-.63,5.82-1.9,8.08c-1.27,2.26-3,3.99-5.2,5.2-2.2,1.21-4.69,1.81-7.47,1.81ZM230.3,560.63c1.42,0,2.72-.37,3.88-1.11s2.08-1.87,2.76-3.39c.68-1.52,1.02-3.44,1.02-5.76s-.36-4.34-1.07-5.87c-.71-1.53-1.66-2.66-2.83-3.39-1.18-.73-2.49-1.09-3.95-1.09s-2.72.38-3.88,1.14c-1.16.76-2.08,1.9-2.76,3.44-.68,1.53-1.02,3.46-1.02,5.78s.36,4.24,1.07,5.76c.71,1.52,1.66,2.65,2.85,3.39s2.5,1.11,3.92,1.11Z"/>
        <path class="st0" d="M249.8,564.99v-29.25h10.21c3,0,5.64.52,7.92,1.56,2.27,1.04,4.05,2.59,5.32,4.67,1.27,2.07,1.9,4.66,1.9,7.75,0,2.63-.43,4.91-1.28,6.85-.85,1.93-2.04,3.52-3.55,4.76-1.52,1.24-3.27,2.16-5.25,2.76-1.98.6-4.1.91-6.36.91h-8.91ZM256.16,560.07h2.14c1.76,0,3.41-.3,4.94-.91s2.78-1.66,3.74-3.16c.96-1.5,1.44-3.6,1.44-6.29,0-2.94-.84-5.18-2.51-6.73-1.67-1.55-3.92-2.32-6.73-2.32h-3.02v19.4Z"/>
        <path class="st0" d="M161.59,632.99v-29.25h10.45c3.06,0,5.49.67,7.29,2.02s2.69,3.21,2.69,5.59c0,1.18-.26,2.2-.79,3.06-.53.87-1.2,1.55-2.02,2.07-.82.51-1.66.88-2.53,1.09,1.7.31,3.16,1.04,4.39,2.21,1.22,1.16,1.83,2.79,1.83,4.9,0,1.61-.46,3.04-1.39,4.29-.93,1.25-2.22,2.24-3.88,2.95-1.66.71-3.61,1.07-5.87,1.07h-10.17ZM167.95,615.4h2.97c1.39,0,2.51-.3,3.34-.91.84-.6,1.25-1.49,1.25-2.67,0-1.08-.39-1.9-1.16-2.44-.77-.54-1.87-.81-3.3-.81h-3.11v6.82ZM167.95,628.16h2.97c1.55,0,2.84-.31,3.88-.93,1.04-.62,1.56-1.66,1.56-3.11s-.53-2.44-1.6-3.04c-1.07-.6-2.39-.91-3.97-.91h-2.83v7.98Z"/>
        <path class="st0" d="M184.71,632.99l10.91-29.25h6.59l10.82,29.25h-6.73l-2.27-6.73h-10.4l-2.27,6.73h-6.64ZM195.06,621.57h7.43l-1.35-3.9c-.4-1.18-.8-2.41-1.18-3.71-.39-1.3-.75-2.52-1.09-3.67h-.09c-.31,1.15-.67,2.34-1.09,3.6s-.84,2.51-1.28,3.78l-1.35,3.9Z"/>
        <path class="st0" d="M216.93,632.99v-29.25h11.1c2.2,0,4.03.4,5.5,1.21,1.47.81,2.58,1.89,3.34,3.25.76,1.36,1.14,2.89,1.14,4.6,0,1.58-.3,2.92-.91,4.02-.6,1.1-1.34,2-2.21,2.69-.87.7-1.72,1.21-2.55,1.56l7.2,11.93h-7.29l-5.62-10.77h-3.39v10.77h-6.31ZM223.24,617.35h2.46c1.67,0,3.05-.36,4.13-1.07,1.08-.71,1.62-1.84,1.62-3.39,0-1.36-.43-2.42-1.3-3.18-.87-.76-2.12-1.14-3.76-1.14h-3.16v8.77Z"/>
        <path class="st0" d="M161.59,700.99v-29.25h18.57v4.92h-12.21v7.71h11.19v4.87h-11.19v11.75h-6.36Z"/>
        <path class="st0" d="M184.66,700.99v-29.25h6.36v29.25h-6.36Z"/>
        <path class="st0" d="M197.48,700.99v-29.25h11.1c2.2,0,4.03.4,5.5,1.21,1.47.8,2.58,1.89,3.34,3.25.76,1.36,1.14,2.89,1.14,4.6,0,1.58-.3,2.92-.91,4.02-.6,1.1-1.34,2-2.21,2.69-.87.7-1.72,1.21-2.55,1.55l7.2,11.93h-7.29l-5.62-10.77h-3.39v10.77h-6.31ZM203.79,685.34h2.46c1.67,0,3.05-.36,4.13-1.07,1.08-.71,1.62-1.84,1.62-3.39,0-1.36-.43-2.42-1.3-3.18-.87-.76-2.12-1.14-3.76-1.14h-3.16v8.77Z"/>
        <path class="st0" d="M232.76,701.45c-3.5,0-6.72-.71-9.66-2.13l1.44-4.74c1.33.65,2.64,1.15,3.92,1.51,1.28.36,2.61.53,3.97.53,1.64,0,2.89-.3,3.74-.91.85-.6,1.28-1.43,1.28-2.48,0-.77-.32-1.49-.97-2.13-.65-.65-2-1.3-4.04-1.95l-2.41-.79c-1.46-.53-2.73-1.14-3.83-1.86-1.1-.71-1.96-1.59-2.58-2.65-.62-1.05-.93-2.35-.93-3.9,0-2.57.94-4.67,2.81-6.31,1.87-1.64,4.54-2.46,8.01-2.46,1.86,0,3.52.19,4.99.56,1.47.37,2.76.87,3.88,1.49l-1.44,4.74c-1.24-.62-2.45-1.1-3.62-1.44-1.18-.34-2.32-.51-3.44-.51-1.52,0-2.69.3-3.5.91-.82.6-1.23,1.4-1.23,2.39s.37,1.79,1.11,2.3,1.87,1.03,3.39,1.56l2.79.88c2.29.77,4.11,1.87,5.45,3.3,1.35,1.42,2.02,3.16,2.02,5.2,0,1.64-.42,3.14-1.25,4.5-.84,1.36-2.08,2.44-3.74,3.23-1.66.79-3.71,1.18-6.15,1.18Z"/>
        <path class="st0" d="M254.11,700.99v-24.23h-8.12v-5.01h22.75v5.01h-8.26v24.23h-6.36Z"/>
        <path class="st0" d="M280.43,700.99l10.91-29.25h6.59l10.82,29.25h-6.73l-2.27-6.73h-10.4l-2.27,6.73h-6.64ZM290.78,689.57h7.43l-1.35-3.9c-.4-1.18-.8-2.41-1.18-3.71-.39-1.3-.75-2.52-1.09-3.67h-.09c-.31,1.15-.67,2.34-1.09,3.6-.42,1.25-.84,2.51-1.28,3.78l-1.35,3.9Z"/>
        <path class="st0" d="M312.65,700.99v-29.25h6.36v29.25h-6.36Z"/>
        <path class="st0" d="M325.46,700.99v-29.25h10.21c3,0,5.64.52,7.92,1.55,2.27,1.04,4.05,2.59,5.32,4.67s1.9,4.66,1.9,7.75c0,2.63-.43,4.91-1.28,6.85-.85,1.93-2.04,3.52-3.55,4.76-1.52,1.24-3.27,2.16-5.25,2.76-1.98.6-4.1.91-6.36.91h-8.91ZM331.82,696.07h2.14c1.76,0,3.41-.3,4.94-.91s2.78-1.66,3.74-3.16c.96-1.5,1.44-3.6,1.44-6.29,0-2.94-.84-5.18-2.51-6.73-1.67-1.55-3.92-2.32-6.73-2.32h-3.02v19.4Z"/>
        <path class="st0" d="M161.59,768.99v-29.25h6.36v24.23h11.79v5.01h-18.15Z"/>
        <path class="st0" d="M195.62,769.45c-2.75,0-5.22-.59-7.4-1.76-2.18-1.18-3.89-2.89-5.13-5.13-1.24-2.24-1.86-4.97-1.86-8.19s.63-5.83,1.9-8.1c1.27-2.28,3.01-4.02,5.22-5.25,2.21-1.22,4.7-1.83,7.45-1.83s5.26.6,7.43,1.79c2.17,1.19,3.87,2.92,5.11,5.18,1.24,2.26,1.86,5,1.86,8.22s-.63,5.82-1.9,8.08c-1.27,2.26-3,3.99-5.2,5.2-2.2,1.21-4.69,1.81-7.47,1.81ZM195.81,764.63c1.42,0,2.72-.37,3.88-1.11,1.16-.74,2.08-1.87,2.76-3.39.68-1.52,1.02-3.43,1.02-5.76s-.36-4.34-1.07-5.87c-.71-1.53-1.66-2.66-2.83-3.39-1.18-.73-2.49-1.09-3.95-1.09s-2.72.38-3.88,1.14c-1.16.76-2.08,1.9-2.76,3.44-.68,1.53-1.02,3.46-1.02,5.78s.36,4.24,1.07,5.76c.71,1.52,1.66,2.65,2.85,3.39,1.19.74,2.5,1.11,3.92,1.11Z"/>
        <path class="st0" d="M229.04,769.45c-2.94,0-5.55-.61-7.82-1.83s-4.06-2.96-5.36-5.22-1.95-4.95-1.95-8.08.63-5.77,1.88-8.03c1.25-2.26,3.02-4.01,5.32-5.25,2.29-1.24,4.98-1.86,8.08-1.86,2.01,0,3.66.19,4.94.56,1.28.37,2.33.77,3.13,1.21l-1.44,4.69c-.81-.43-1.7-.8-2.69-1.09-.99-.29-2.09-.44-3.3-.44-1.67,0-3.2.34-4.6,1.02-1.39.68-2.51,1.76-3.34,3.25-.84,1.49-1.25,3.45-1.25,5.9s.4,4.29,1.21,5.8c.8,1.52,1.9,2.64,3.27,3.37,1.38.73,2.92,1.09,4.62,1.09,1.42,0,2.62-.12,3.6-.37.98-.25,1.83-.57,2.58-.97l1.25,4.64c-.74.4-1.79.77-3.13,1.11-1.35.34-3.01.51-4.99.51Z"/>
        <path class="st0" d="M241.63,768.99v-29.25h6.36v12.26l10.03-12.26h7.89l-10.91,12.72,11.84,16.53h-7.8l-8.68-12.53-2.37,2.6v9.93h-6.36Z"/>
        <path class="st0" d="M270.04,768.99v-29.25h19.03v4.92h-12.67v6.68h11.47v4.87h-11.47v7.85h12.81v4.92h-19.17Z"/>
        <path class="st0" d="M294.08,768.99v-29.25h11.1c2.2,0,4.03.4,5.5,1.21,1.47.8,2.58,1.89,3.34,3.25.76,1.36,1.14,2.89,1.14,4.6,0,1.58-.3,2.92-.91,4.02-.6,1.1-1.34,2-2.21,2.69-.87.7-1.72,1.21-2.55,1.55l7.2,11.93h-7.29l-5.62-10.77h-3.39v10.77h-6.31ZM300.4,753.34h2.46c1.67,0,3.05-.36,4.13-1.07,1.08-.71,1.62-1.84,1.62-3.39,0-1.36-.43-2.42-1.3-3.18-.87-.76-2.12-1.14-3.76-1.14h-3.16v8.77Z"/>
      </g>
      <g>
        <path class="st0" d="M93.79,88.99v-22.24l-5.15,2.46-1.35-4.46,7.47-3.39h4.87v27.62h-5.85Z"/>
        <path class="st0" d="M87.9,156.99l-1.07-3.95,4.04-3.95c2.72-2.66,4.68-4.91,5.87-6.75,1.19-1.84,1.79-3.47,1.79-4.9s-.33-2.38-1-3.06c-.67-.68-1.54-1.02-2.62-1.02-1.7,0-3.45.71-5.25,2.14l-2.41-3.71c1.11-.93,2.34-1.65,3.67-2.16,1.33-.51,2.92-.77,4.78-.77,2.75,0,4.92.76,6.5,2.27,1.58,1.52,2.37,3.47,2.37,5.85,0,1.92-.69,3.94-2.07,6.06-1.38,2.12-3.35,4.37-5.92,6.75l-2.69,2.6h11v4.6h-16.99Z"/>
        <path class="st0" d="M94.4,225.45c-1.49,0-2.89-.16-4.22-.46-1.33-.31-2.49-.71-3.48-1.21l1.3-4.18c.9.4,1.77.73,2.62.98.85.25,1.82.37,2.9.37,1.55,0,2.79-.32,3.74-.95.94-.63,1.42-1.57,1.42-2.81s-.43-2.16-1.3-2.85c-.87-.7-2.17-1.04-3.9-1.04h-3.16v-4.36h2.27c1.64,0,2.92-.35,3.83-1.07.91-.71,1.37-1.7,1.37-2.97,0-1.18-.39-2.07-1.16-2.67-.77-.6-1.72-.91-2.83-.91-1.55,0-3.08.5-4.6,1.49l-1.86-3.95c2.07-1.33,4.58-2,7.52-2,1.79,0,3.36.33,4.69.98,1.33.65,2.37,1.52,3.11,2.62s1.11,2.33,1.11,3.69c0,1.73-.45,3.13-1.35,4.18-.9,1.05-1.98,1.84-3.25,2.37,1.64.37,2.98,1.15,4.02,2.34,1.04,1.19,1.56,2.61,1.56,4.25,0,1.89-.46,3.44-1.39,4.64-.93,1.21-2.17,2.1-3.74,2.67-1.56.57-3.3.86-5.22.86Z"/>
        <path class="st0" d="M98.9,292.99v-6.36h-12.81v-3.76l11.56-17.5h6.92v16.71h3.99v4.55h-3.99v6.36h-5.66ZM92.17,282.08h6.73v-5.8l.23-5.71h-.09l-2.55,4.92-4.32,6.59Z"/>
        <path class="st0" d="M74.94,360.99l-6.17-22.19h6.45l2.79,11.74.84,5.85h.19l1.02-5.85,2.74-11.74h6.5l2.79,11.74.97,5.85h.19l.93-5.85,2.74-11.74h6.27l-6.08,22.19h-7.24l-2.88-11.98-.98-5.39-.97,5.39-2.88,11.98h-7.2Z"/>
        <path class="st0" d="M116.81,361.45c-2.23,0-4.24-.43-6.03-1.3-1.8-.87-3.22-2.15-4.27-3.85-1.05-1.7-1.58-3.81-1.58-6.31,0-2.32.5-4.36,1.51-6.1,1.01-1.75,2.41-3.11,4.22-4.08,1.81-.98,3.89-1.46,6.24-1.46.96,0,1.98.09,3.06.28,1.08.19,2.21.59,3.39,1.21l-1.35,4.32c-.65-.4-1.35-.72-2.11-.95-.76-.23-1.52-.35-2.3-.35-1.89,0-3.43.59-4.62,1.76-1.19,1.18-1.79,2.91-1.79,5.2,0,1.76.32,3.17.97,4.2.65,1.04,1.48,1.78,2.48,2.23,1,.45,2.03.67,3.09.67.99,0,1.86-.13,2.62-.4.76-.26,1.37-.5,1.83-.72l1.16,4.22c-.59.34-1.47.67-2.65.98-1.18.31-2.48.46-3.9.46Z"/>
      </g>
      <path class="st0" d="M84.89,407.38l-3.25,1.77c-.48.27-.99.35-1.52.23s-.9-.4-1.11-.84l-3.56-6.03c-.28-.47-.35-.88-.23-1.22.12-.34.4-.64.85-.91l11.76-6.73h3.3c.38,0,.68.11.9.33s.34.51.34.89v.76c0,1.28.41,2.33,1.24,3.14s1.89,1.22,3.2,1.22,2.36-.41,3.17-1.22,1.21-1.86,1.21-3.14v-.76c0-.37.11-.67.34-.89s.52-.33.9-.33h3.3l11.76,6.73c.45.27.72.57.83.91s.03.74-.21,1.22l-3.61,6.03c-.21.44-.64.73-1.29.86s-1.17.08-1.55-.15l-3.2-1.97v20.86c0,.54-.21,1-.62,1.39-.41.39-.89.58-1.44.58h-19.49c-.55,0-1.02-.19-1.42-.58-.4-.39-.59-.85-.59-1.39v-20.76ZM87.98,402.21v24.86h17.38v-24.86l7.12,3.9,2.32-3.95-9.64-5.42h-.93c-.28,1.82-1.09,3.33-2.45,4.51-1.36,1.18-3.02,1.77-4.98,1.77s-3.63-.59-5-1.77-2.2-2.68-2.48-4.51h-.93l-9.64,5.42,2.32,3.95,6.91-3.9Z"/>
      <path class="st0" d="M96.7,498l-10.04-20.05c-2.55.44-4.84-.11-6.85-1.63-2.02-1.53-3.02-3.65-3.02-6.37,0-1.63.51-3.23,1.53-4.79s2.51-2.62,4.47-3.16c.59-3.6,2.23-6.48,4.91-8.66s5.71-3.27,9.07-3.27,6.38,1.09,9.04,3.27,4.31,5.07,4.94,8.66c1.96.54,3.45,1.6,4.47,3.16s1.53,3.16,1.53,4.79c0,2.72-1.05,4.85-3.14,6.37-2.09,1.53-4.3,2.07-6.63,1.63l-10.27,20.05ZM84.88,474.85c.67,0,1.29-.09,1.89-.27s1.05-.44,1.39-.76l1.44-1.47,1.28,1.09c.92.62,1.93,1.01,3.02,1.17s2.1.25,3.02.25,1.87-.08,2.83-.25,1.91-.55,2.83-1.17l1.33-1.09,1.39,1.47c.33.33.8.58,1.41.76s1.23.27,1.86.27c1.26,0,2.38-.5,3.36-1.5.98-1,1.47-2.13,1.47-3.41,0-1.13-.35-2.11-1.05-2.94s-1.7-1.36-3-1.58l-1.94-.27-.11-2.12c-.41-2.87-1.54-5.2-3.41-7s-4.24-2.7-7.13-2.7-5.27.9-7.16,2.7c-1.89,1.8-3.01,4.13-3.38,7l-.17,2.12-1.94.44c-1.11.29-2.05.81-2.83,1.55s-1.17,1.68-1.17,2.81c0,1.27.49,2.41,1.47,3.41s2.08,1.5,3.3,1.5ZM96.7,490.59l7.1-13.73-.33-.33c-1.04.54-2.15.94-3.36,1.2s-2.27.38-3.19.38c-1.18,0-2.39-.13-3.61-.38s-2.29-.65-3.22-1.2l-.33.27,6.94,13.78Z"/>
      <path class="st0" d="M88.65,568.28v-16.74c-1.61-.33-2.97-1.13-4.1-2.39-1.13-1.26-1.69-2.77-1.69-4.53v-12.74h2.78v12.74h3.01v-12.74h2.78v12.74h3.01v-12.74h2.78v12.74c0,1.76-.56,3.27-1.69,4.53-1.13,1.26-2.49,2.05-4.1,2.39v16.74h-2.78ZM107.88,568.28v-14.56h-5.33v-13.88c0-2.4.74-4.32,2.22-5.78s3.44-2.18,5.88-2.18v36.4h-2.78Z"/>
      <path class="st0" d="M84.99,632.19v-2.89h10.3v-11.75l-16.18-17.14v-2.89h35.3v2.89l-16.18,17.14v11.75h10.3v2.89h-23.53ZM87,604.51h19.51l4.07-3.9h-27.65l4.07,3.9ZM96.76,614.91l7.06-7.51h-14.12l7.06,7.51Z"/>
      <path class="st0" d="M85.8,770.19c-.7,0-1.29-.25-1.79-.74-.5-.5-.74-1.09-.74-1.79v-18.29c0-.7.25-1.29.74-1.79.5-.5,1.09-.74,1.79-.74h2.95v-4.05c0-2.22.78-4.1,2.34-5.66,1.56-1.56,3.45-2.34,5.67-2.34s4.1.78,5.66,2.34c1.56,1.56,2.34,3.45,2.34,5.66v4.05h2.95c.7,0,1.29.25,1.79.74.5.5.74,1.09.74,1.79v18.29c0,.7-.25,1.29-.74,1.79-.5.5-1.09.74-1.79.74h-21.91ZM85.8,767.66h21.91v-18.29h-21.91v18.29ZM96.76,761.76c.89,0,1.66-.31,2.29-.93.63-.62.95-1.36.95-2.23s-.32-1.61-.96-2.3c-.64-.69-1.4-1.03-2.3-1.03s-1.66.34-2.29,1.03-.95,1.46-.95,2.32.32,1.59.96,2.21,1.4.93,2.3.93ZM91.28,746.84h10.96v-4.05c0-1.52-.53-2.82-1.6-3.88-1.06-1.07-2.36-1.6-3.88-1.6s-2.81.53-3.88,1.6c-1.07,1.07-1.6,2.36-1.6,3.88v4.05ZM85.8,767.66v-18.29,18.29Z"/>
      <path class="st0" d="M95.54,688.97h3.36v-4.2h4.2v-3.36h-4.2v-4.2h-3.36v4.2h-4.2v3.36h4.2v4.2ZM97.22,700.69c-3.92-.98-7.14-3.25-9.66-6.82-2.52-3.57-3.78-7.48-3.78-11.74v-9.99l13.44-5.04,13.44,5.04v9.99c0,4.25-1.26,8.17-3.78,11.74s-5.74,5.84-9.66,6.82ZM97.22,698.08c3.22-1.06,5.84-3.07,7.87-6.03,2.03-2.95,3.04-6.26,3.04-9.93v-8.23l-10.92-4.12-10.92,4.12v8.23c0,3.67,1.01,6.98,3.04,9.93,2.03,2.95,4.65,4.96,7.87,6.03Z"/>
    </g>
  </g>
</svg>